HIERARCHY
ROOT Hips
{
	OFFSET 0.000000 100.481300 0.000000
	CHANNELS 6 Xposition Yposition Zposition Xrotation Yrotation Zrotation
	JOINT Spine
	{
		OFFSET -0.279200 12.230698 -2.892100
		CHANNELS 3 Xrotation Yrotation Zrotation
		JOINT Spine1
		{
			OFFSET -0.325700 14.269203 -3.374200
			CHANNELS 3 Xrotation Yrotation Zrotation
			JOINT Spine2
			{
				OFFSET -0.372300 16.307602 -0.352600
				CHANNELS 3 Xrotation Yrotation Zrotation
				JOINT Neck
				{
					OFFSET -0.418800 17.814194 8.416900
					CHANNELS 3 Xrotation Yrotation Zrotation
					JOINT Head
					{
						OFFSET 0.000000 7.031097 3.806800
						CHANNELS 3 Xrotation Yrotation Zrotation
						JOINT HeadTop_End
						{
							OFFSET 0.000000 24.646606 12.978600
							CHANNELS 3 Xrotation Yrotation Zrotation
							End Site
							{
								OFFSET 0.000000 27.854965 0.000000
							}
						}
					}
				}
				JOINT LeftShoulder
				{
					OFFSET 16.952999 14.495407 -7.737500
					CHANNELS 3 Xrotation Yrotation Zrotation
					JOINT LeftArm
					{
						OFFSET 9.308998 -2.777710 0.208600
						CHANNELS 3 Xrotation Yrotation Zrotation
						JOINT LeftForeArm
						{
							OFFSET 29.972298 0.000000 0.000000
							CHANNELS 3 Xrotation Yrotation Zrotation
							JOINT LeftHand
							{
								OFFSET 26.026505 0.000000 0.000000
								CHANNELS 3 Xrotation Yrotation Zrotation
								JOINT LeftHandThumb1
								{
									OFFSET 12.240501 -7.147949 9.207150
									CHANNELS 3 Xrotation Yrotation Zrotation
									JOINT LeftHandThumb2
									{
										OFFSET 4.138618 -2.389435 2.389433
										CHANNELS 3 Xrotation Yrotation Zrotation
										JOINT LeftHandThumb3
										{
											OFFSET 2.726913 -1.574387 1.574386
											CHANNELS 3 Xrotation Yrotation Zrotation
											JOINT LeftHandThumb4
											{
												OFFSET 3.941010 -2.275345 2.275342
												CHANNELS 3 Xrotation Yrotation Zrotation
												End Site
												{
													OFFSET -0.005798 5.087799 0.009903
												}
											}
										}
									}
								}
								JOINT LeftHandIndex1
								{
									OFFSET 24.424698 -1.985611 5.953459
									CHANNELS 3 Xrotation Yrotation Zrotation
									JOINT LeftHandIndex2
									{
										OFFSET 6.426697 0.000000 0.000000
										CHANNELS 3 Xrotation Yrotation Zrotation
										JOINT LeftHandIndex3
										{
											OFFSET 5.337898 0.000000 0.000000
											CHANNELS 3 Xrotation Yrotation Zrotation
											JOINT LeftHandIndex4
											{
												OFFSET 4.409401 0.000000 0.000000
												CHANNELS 3 Xrotation Yrotation Zrotation
												End Site
												{
													OFFSET 0.000000 4.409363 0.014373
												}
											}
										}
									}
								}
								JOINT LeftHandMiddle1
								{
									OFFSET 23.810104 0.000000 0.000000
									CHANNELS 3 Xrotation Yrotation Zrotation
									JOINT LeftHandMiddle2
									{
										OFFSET 7.176498 0.000000 0.000000
										CHANNELS 3 Xrotation Yrotation Zrotation
										JOINT LeftHandMiddle3
										{
											OFFSET 6.774902 0.000000 0.000000
											CHANNELS 3 Xrotation Yrotation Zrotation
											JOINT LeftHandMiddle4
											{
												OFFSET 5.403328 0.000000 0.000000
												CHANNELS 3 Xrotation Yrotation Zrotation
												End Site
												{
													OFFSET -0.027702 5.403244 0.017414
												}
											}
										}
									}
								}
								JOINT LeftHandRing1
								{
									OFFSET 22.908401 -0.839279 -6.020567
									CHANNELS 3 Xrotation Yrotation Zrotation
									JOINT LeftHandRing2
									{
										OFFSET 6.337502 0.000000 0.000000
										CHANNELS 3 Xrotation Yrotation Zrotation
										JOINT LeftHandRing3
										{
											OFFSET 5.779297 0.000000 0.000000
											CHANNELS 3 Xrotation Yrotation Zrotation
											JOINT LeftHandRing4
											{
												OFFSET 4.965698 0.000000 0.000000
												CHANNELS 3 Xrotation Yrotation Zrotation
												End Site
												{
													OFFSET 0.000000 4.965668 0.016186
												}
											}
										}
									}
								}
								JOINT LeftHandPinky1
								{
									OFFSET 20.037003 -1.530319 -10.950146
									CHANNELS 3 Xrotation Yrotation Zrotation
									JOINT LeftHandPinky2
									{
										OFFSET 5.254700 0.000000 0.000000
										CHANNELS 3 Xrotation Yrotation Zrotation
										JOINT LeftHandPinky3
										{
											OFFSET 4.810204 0.000000 0.000000
											CHANNELS 3 Xrotation Yrotation Zrotation
											JOINT LeftHandPinky4
											{
												OFFSET 3.647202 0.000000 0.000000
												CHANNELS 3 Xrotation Yrotation Zrotation
												End Site
												{
													OFFSET 0.000000 3.647186 0.011889
												}
											}
										}
									}
								}
							}
						}
					}
				}
				JOINT RightShoulder
				{
					OFFSET -15.141001 14.495407 -7.737500
					CHANNELS 3 Xrotation Yrotation Zrotation
					JOINT RightArm
					{
						OFFSET -9.308998 -2.777710 0.208500
						CHANNELS 3 Xrotation Yrotation Zrotation
						JOINT RightForeArm
						{
							OFFSET -29.972300 0.000000 0.000000
							CHANNELS 3 Xrotation Yrotation Zrotation
							JOINT RightHand
							{
								OFFSET -26.026505 0.000000 0.000000
								CHANNELS 3 Xrotation Yrotation Zrotation
								JOINT RightHandThumb1
								{
									OFFSET -12.240601 -7.148026 9.207092
									CHANNELS 3 Xrotation Yrotation Zrotation
									JOINT RightHandThumb2
									{
										OFFSET -4.138618 -2.389435 2.389433
										CHANNELS 3 Xrotation Yrotation Zrotation
										JOINT RightHandThumb3
										{
											OFFSET -2.726974 -1.574417 1.574421
											CHANNELS 3 Xrotation Yrotation Zrotation
											JOINT RightHandThumb4
											{
												OFFSET -3.941010 -2.275345 2.275343
												CHANNELS 3 Xrotation Yrotation Zrotation
												End Site
												{
													OFFSET 0.005814 5.087799 0.009927
												}
											}
										}
									}
								}
								JOINT RightHandIndex1
								{
									OFFSET -24.424698 -1.985657 5.953444
									CHANNELS 3 Xrotation Yrotation Zrotation
									JOINT RightHandIndex2
									{
										OFFSET -6.426697 0.000000 0.000000
										CHANNELS 3 Xrotation Yrotation Zrotation
										JOINT RightHandIndex3
										{
											OFFSET -5.337898 0.000000 0.000000
											CHANNELS 3 Xrotation Yrotation Zrotation
											JOINT RightHandIndex4
											{
												OFFSET -4.409401 0.000000 0.000000
												CHANNELS 3 Xrotation Yrotation Zrotation
												End Site
												{
													OFFSET 0.000000 4.409363 0.014408
												}
											}
										}
									}
								}
								JOINT RightHandMiddle1
								{
									OFFSET -23.810097 0.000000 0.000000
									CHANNELS 3 Xrotation Yrotation Zrotation
									JOINT RightHandMiddle2
									{
										OFFSET -7.176498 0.000000 0.000000
										CHANNELS 3 Xrotation Yrotation Zrotation
										JOINT RightHandMiddle3
										{
											OFFSET -6.774902 0.000000 0.000000
											CHANNELS 3 Xrotation Yrotation Zrotation
											JOINT RightHandMiddle4
											{
												OFFSET -5.403328 0.000000 0.000000
												CHANNELS 3 Xrotation Yrotation Zrotation
												End Site
												{
													OFFSET 0.027702 5.403244 0.017457
												}
											}
										}
									}
								}
								JOINT RightHandRing1
								{
									OFFSET -22.908302 -0.839325 -6.020576
									CHANNELS 3 Xrotation Yrotation Zrotation
									JOINT RightHandRing2
									{
										OFFSET -6.337502 0.000000 0.000000
										CHANNELS 3 Xrotation Yrotation Zrotation
										JOINT RightHandRing3
										{
											OFFSET -5.779297 0.000000 0.000000
											CHANNELS 3 Xrotation Yrotation Zrotation
											JOINT RightHandRing4
											{
												OFFSET -4.965698 0.000000 0.000000
												CHANNELS 3 Xrotation Yrotation Zrotation
												End Site
												{
													OFFSET 0.000000 4.965668 0.016226
												}
											}
										}
									}
								}
								JOINT RightHandPinky1
								{
									OFFSET -20.037003 -1.530334 -10.950259
									CHANNELS 3 Xrotation Yrotation Zrotation
									JOINT RightHandPinky2
									{
										OFFSET -5.254700 0.000000 0.000000
										CHANNELS 3 Xrotation Yrotation Zrotation
										JOINT RightHandPinky3
										{
											OFFSET -4.810204 0.000000 0.000000
											CHANNELS 3 Xrotation Yrotation Zrotation
											JOINT RightHandPinky4
											{
												OFFSET -3.647202 0.000000 0.000000
												CHANNELS 3 Xrotation Yrotation Zrotation
												End Site
												{
													OFFSET 0.000000 3.647186 0.011917
												}
											}
										}
									}
								}
							}
						}
					}
				}
			}
		}
	}
	JOINT LeftUpLeg
	{
		OFFSET 15.427100 -6.655098 0.678600
		CHANNELS 3 Xrotation Yrotation Zrotation
		JOINT LeftLeg
		{
			OFFSET 4.081073 -39.591068 13.024000
			CHANNELS 3 Xrotation Yrotation Zrotation
			JOINT LeftFoot
			{
				OFFSET -4.081074 -37.707932 -15.979700
				CHANNELS 3 Xrotation Yrotation Zrotation
				JOINT LeftToeBase
				{
					OFFSET 5.346399 -15.068900 20.645000
					CHANNELS 3 Xrotation Yrotation Zrotation
					JOINT LeftToe_End
					{
						OFFSET 2.754700 0.931300 11.300900
						CHANNELS 3 Xrotation Yrotation Zrotation
						End Site
						{
							OFFSET 0.000000 11.669021 0.000000
						}
					}
				}
			}
		}
	}
	JOINT RightUpLeg
	{
		OFFSET -15.569500 -6.655098 0.678600
		CHANNELS 3 Xrotation Yrotation Zrotation
		JOINT RightLeg
		{
			OFFSET -4.081825 -39.591045 13.023800
			CHANNELS 3 Xrotation Yrotation Zrotation
			JOINT RightFoot
			{
				OFFSET 4.081824 -37.707954 -15.979600
				CHANNELS 3 Xrotation Yrotation Zrotation
				JOINT RightToeBase
				{
					OFFSET -5.346400 -15.068900 20.645000
					CHANNELS 3 Xrotation Yrotation Zrotation
					JOINT RightToe_End
					{
						OFFSET -2.754700 0.931300 11.300900
						CHANNELS 3 Xrotation Yrotation Zrotation
						End Site
						{
							OFFSET 0.000000 11.669021 0.000000
						}
					}
				}
			}
		}
	}
}
MOTION
Frames: 6
Frame Time: 0.033333
-0.316923 77.323341 0.866192 22.500496 -8.579325 12.228234 -6.144133 1.199989 -4.398498 -10.412554 3.042528 -8.703041 -10.406155 3.309852 -8.592271 5.031061 -0.622317 -1.442159 -10.278758 -10.567755 12.535641 0.000000 -0.000000 -0.000000 2.785114 22.127859 -6.615312 -29.189186 34.993866 -45.222027 0.000050 -120.008432 0.000067 9.205457 -12.842934 55.118544 2.795214 7.367479 10.628022 4.056667 7.261329 1.174609 -5.055493 2.650889 15.802237 -0.000000 -0.000003 -0.000000 12.005994 9.899310 -76.032594 3.217422 5.226669 -63.208831 3.079440 5.154962 -61.683998 -0.000000 0.000001 -0.000000 7.644823 8.276127 -87.629688 3.007557 5.115754 -60.880953 4.200587 5.614226 -73.588472 -0.000000 -0.000001 0.000002 2.804549 8.651425 -97.363650 2.925944 5.069596 -59.961322 3.965268 5.539813 -71.167436 -0.000001 0.000002 -0.000000 7.575671 20.609015 -102.643468 4.524790 5.699294 -76.876655 4.495138 5.692298 -76.577793 -0.000001 0.000001 -0.000000 -0.503098 -7.744014 -6.054038 0.719149 -21.858224 69.095983 0.000013 134.433668 0.000003 52.198720 15.521369 -25.495049 2.686442 -3.612730 -12.566121 3.309004 -6.352235 -1.463705 0.902053 -20.596772 -21.286503 0.000000 0.000001 0.000001 2.189570 -4.802400 71.402367 1.560805 -3.480445 48.297080 1.890339 -3.747659 53.521233 -0.000000 0.000001 -0.000000 1.506336 -6.360106 77.996471 2.123270 -3.908779 57.008983 2.988990 -4.348777 68.989446 0.000001 0.000002 0.000002 3.236985 -6.947699 90.586565 2.094136 -3.889766 56.580495 2.500043 -4.128439 62.381402 0.000003 -0.000000 0.000000 0.774737 -22.586450 96.682933 2.806304 -4.274328 66.559722 2.803482 -4.273096 66.522013 0.000001 -0.000000 0.000000 -43.588300 -2.895453 -0.692061 54.603674 -2.933737 7.031371 -32.306450 1.074214 2.899304 -4.317378 -0.000002 -0.000003 0.000001 0.000000 -0.000001 -60.665645 17.611786 -5.364617 63.990970 -1.049723 -8.893530 -18.325018 -5.071311 8.053726 -9.837212 0.000002 0.000005 -0.000000 -0.000000 0.000000 
-0.740704 78.710014 1.317471 23.026610 -1.093014 10.317272 -7.176837 0.881393 -4.916221 -11.696507 2.181572 -8.712647 -11.672272 2.416499 -8.620176 6.088914 0.442208 -2.216803 -6.356813 -3.401900 8.329630 -0.000000 0.000000 -0.000001 2.876266 24.921847 -5.329350 -24.096692 33.330708 -50.169573 0.000022 -126.955718 0.000026 14.722620 -12.818896 55.291389 2.632095 5.338517 10.093329 4.521095 8.332883 1.373830 -4.810217 3.182528 15.973555 -0.000004 0.000000 0.000002 12.848854 9.459576 -80.468713 3.458169 5.340913 -65.822813 3.301088 5.267896 -64.123844 0.000000 0.000002 0.000000 7.057787 8.186208 -90.701572 3.141769 5.187942 -62.375337 4.378003 5.663224 -75.394094 0.000001 0.000002 0.000002 2.349137 8.694270 -97.140856 2.886556 5.046707 -59.514683 3.952378 5.535438 -71.033954 0.000000 -0.000000 0.000001 6.895287 19.552458 -96.183735 4.270784 5.634325 -74.304679 4.115573 5.588614 -72.717684 0.000001 0.000002 0.000001 -1.105353 -14.634717 -6.156399 4.227233 -24.165534 74.738157 0.000015 132.750983 -0.000023 51.049582 13.868580 -28.598685 2.342440 -2.756398 -12.894508 3.537011 -6.902329 -1.566519 0.996694 -20.830993 -21.333230 0.000000 -0.000001 0.000002 2.167810 -4.723745 71.398925 1.557240 -3.477284 48.238252 1.886170 -3.744562 53.457476 0.000001 -0.000001 0.000001 1.550404 -6.371030 78.038142 2.120761 -3.907123 56.972268 2.985455 -4.347429 68.942884 -0.000001 0.000000 -0.000001 3.327598 -6.955560 90.940424 2.092821 -3.888865 56.561199 2.502004 -4.129480 62.408361 0.000001 0.000001 -0.000003 0.764523 -22.594302 96.739091 2.811434 -4.276553 66.628516 2.824408 -4.282105 66.802515 -0.000000 0.000000 -0.000000 -45.989481 -2.881841 -3.606765 51.721027 -7.285385 8.923955 -29.600312 -0.119776 5.406885 -2.586914 -0.000003 0.000002 0.000001 -0.000002 -0.000001 -57.118963 15.023739 -10.637351 62.968101 -5.372556 -6.796464 -20.703570 -5.293301 6.653773 -9.181783 0.000003 0.000001 -0.000000 0.000000 0.000000 
-1.311623 81.151482 1.739960 23.807451 4.874786 7.980139 -7.640229 0.619066 -4.603693 -12.528000 1.642039 -7.929741 -12.508845 1.868006 -7.839832 6.586330 2.034227 -2.555777 -0.936471 7.218353 2.183824 0.000000 0.000000 -0.000000 2.869992 24.641366 -5.467586 -19.761573 26.385540 -52.406529 0.000039 -127.542212 0.000049 21.649116 -12.727018 52.954798 2.374763 3.396932 9.738893 4.825592 9.054001 1.499815 -4.708038 3.399664 16.023830 -0.000002 -0.000001 0.000003 12.456214 8.983006 -83.598831 3.601722 5.402794 -67.356095 3.452537 5.338416 -65.762291 -0.000002 -0.000000 0.000001 6.388288 8.180706 -94.377723 3.299411 5.267096 -64.105471 4.586221 5.713189 -77.494684 -0.000000 0.000001 -0.000002 1.686716 9.044032 -100.058904 3.054978 5.141765 -61.411255 4.175213 5.606721 -73.329102 0.000000 0.000000 -0.000002 7.109629 18.695498 -99.944539 4.451816 5.681862 -76.140722 4.309842 5.645105 -74.702305 0.000003 0.000002 0.000001 -1.214098 -16.761884 -6.216356 6.597423 -26.227513 78.430816 0.000022 129.180461 -0.000048 57.559971 13.900563 -25.374544 2.857508 -4.144331 -12.955363 2.103157 -3.622556 -0.883329 0.180161 -18.696571 -20.785871 -0.000002 -0.000000 -0.000000 2.118168 -4.707941 70.491049 1.515825 -3.439912 47.551705 1.841377 -3.711013 52.768498 0.000002 0.000001 0.000000 1.620977 -6.345621 76.979674 2.071151 -3.874511 56.240850 2.928591 -4.325158 68.190833 -0.000000 -0.000001 0.000004 3.296676 -6.926795 89.770836 2.037428 -3.851811 55.740422 2.444539 -4.099012 61.607589 0.000001 -0.000001 -0.000000 0.807818 -22.432056 95.296746 2.752522 -4.250659 65.836016 2.759801 -4.253908 65.934432 0.000000 -0.000001 0.000001 -48.842601 -2.632526 -4.527349 49.200619 -9.369988 9.649514 -22.590907 -1.453066 5.609207 -6.682845 -0.000000 -0.000003 -0.000001 0.000001 -0.000002 -54.999330 12.729299 -13.709953 60.625845 -6.337425 -5.279858 -16.745822 -6.046682 8.465503 -14.703188 0.000001 0.000003 -0.000000 -0.000000 -0.000000 
-1.759458 83.630829 1.789108 23.847573 9.614870 5.119031 -6.977522 0.348348 -3.525346 -12.312297 1.110565 -6.465565 -12.307851 1.364545 -6.352848 6.127070 3.419653 -2.550242 5.779641 15.964442 -4.968169 -0.000000 -0.000002 0.000001 2.401316 23.201936 -4.464201 -15.268254 18.144162 -53.586642 0.000043 -122.768306 0.000061 31.254287 -13.356909 48.997503 2.092909 2.091317 9.640551 4.781968 8.992187 1.478119 -4.864062 3.048227 15.867281 0.000002 0.000001 0.000000 11.556337 8.693819 -85.285533 3.648834 5.422144 -67.855539 3.521008 5.368595 -66.496195 -0.000001 -0.000002 -0.000003 5.856432 8.249673 -96.932979 3.397362 5.313350 -65.167880 4.721387 5.741356 -78.848865 -0.000001 0.000000 -0.000001 1.145315 9.489511 -103.280267 3.237884 5.236913 -63.433415 4.409331 5.671244 -75.711356 0.000000 0.000001 0.000002 7.341813 17.948342 -106.838816 4.728702 5.742778 -78.921975 4.680019 5.733078 -78.435208 0.000003 -0.000001 0.000000 -1.036313 -15.574856 -6.185065 5.789465 -28.678400 76.318874 -0.000000 127.136294 -0.000017 58.446612 14.787336 -21.395718 3.491832 -5.629894 -12.761851 0.521723 -0.004002 -0.054821 -0.758761 -16.233275 -20.124410 0.000001 0.000000 -0.000001 2.027580 -4.615264 69.116310 1.453131 -3.381612 46.497947 1.773141 -3.658264 51.706540 0.000000 0.000001 -0.000000 1.656186 -6.291008 75.225115 1.989620 -3.818884 55.025548 2.835945 -4.287020 66.957185 -0.000000 -0.000001 0.000000 3.158470 -6.862486 87.197808 1.936244 -3.781080 54.220422 2.334756 -4.037890 60.060271 0.000001 -0.000000 -0.000001 0.917084 -22.159002 92.481451 2.632029 -4.194696 64.200008 2.609514 -4.183754 63.891782 0.000000 0.000000 0.000001 -51.268629 -1.983836 -2.651662 47.377334 -5.867971 7.928425 -13.017837 0.846350 4.709040 -13.275110 -0.000002 -0.000010 -0.000000 0.000000 -0.000001 -52.156663 10.858939 -15.178207 57.344158 -6.821594 -4.315524 -11.064983 -6.869096 12.498560 -21.124896 0.000001 -0.000002 0.000000 -0.000000 -0.000000 
-2.114636 85.736732 1.421890 23.008230 14.205005 1.952598 -5.466178 -0.026497 -2.150438 -10.933366 0.326433 -4.689193 -10.942661 0.613590 -4.547496 4.950755 4.208291 -2.071972 9.916688 20.919239 -11.535144 -0.000001 -0.000002 0.000001 1.352949 20.592173 -1.528742 -12.351144 12.772619 -54.484979 -0.000020 -118.728864 -0.000034 40.129796 -14.605403 45.417831 1.869604 1.561507 9.782111 4.499177 8.392881 1.351872 -5.210601 2.282071 15.553787 0.000003 0.000001 -0.000001 11.654544 8.674509 -85.540879 3.632222 5.415369 -67.679607 3.504319 5.361333 -66.317585 0.000001 -0.000001 -0.000001 5.977849 8.236441 -97.065157 3.376313 5.303594 -64.940353 4.694115 5.735931 -78.576293 -0.000001 0.000002 -0.000002 1.066377 9.603243 -104.107840 3.238768 5.237341 -63.443052 4.418688 5.673614 -75.805968 0.000000 0.000000 0.000001 7.263294 17.575086 -109.270165 4.777247 5.752036 -79.406714 4.780341 5.752594 -79.437880 -0.000000 -0.000000 0.000000 -0.952204 -15.036602 -6.184507 1.555262 -30.967603 69.622618 0.000040 129.785219 -0.000027 55.131392 16.399226 -20.463619 3.450501 -4.827582 -12.096723 0.535732 -0.084373 -0.057110 -0.901849 -15.799230 -19.967836 -0.000001 -0.000000 0.000000 1.922899 -4.420976 68.080061 1.398719 -3.329206 45.568273 1.713302 -3.610306 50.762512 0.000000 -0.000001 -0.000001 1.598622 -6.230800 73.937126 1.919321 -3.768863 53.963245 2.756683 -4.252524 65.892242 -0.000001 0.000000 -0.000001 3.131058 -6.814454 85.081331 1.854908 -3.721221 52.977065 2.240597 -3.982314 58.713911 0.000001 -0.000000 0.000000 0.976400 -22.042670 91.043935 2.544522 -4.151358 62.997212 2.495613 -4.126134 62.319937 -0.000000 -0.000000 0.000001 -51.964916 -0.809586 1.163585 46.827442 2.874911 4.459089 -3.975701 2.639981 3.617427 -19.216182 -0.000003 -0.000002 -0.000000 -0.000000 0.000001 -48.595338 8.710128 -15.899012 54.219613 -7.425532 -3.232476 -5.857040 -7.646448 15.605251 -26.839628 0.000002 0.000007 0.000001 0.000001 -0.000000 
-2.317999 86.412476 0.596622 22.329003 18.199268 -1.689024 -3.711897 -0.282824 -0.253595 -9.246063 -0.676105 -2.747941 -9.262585 -0.382379 -2.597181 3.456820 4.473442 -1.307969 8.891539 23.215244 -14.508005 0.000001 -0.000003 0.000001 0.515093 17.736741 1.135482 -11.989234 11.003446 -54.305140 -0.000029 -119.239612 -0.000032 46.561772 -16.046025 43.639933 1.688720 1.343922 10.006647 4.117019 7.580196 1.175934 -5.659642 1.308004 15.150186 -0.000001 0.000000 -0.000000 13.178621 8.930991 -84.591811 3.573804 5.391115 -67.059132 3.416634 5.322174 -65.375893 0.000000 0.000003 -0.000004 6.857774 8.135929 -95.624438 3.282787 5.259041 -63.924178 4.551849 5.705489 -77.149111 -0.000000 0.000001 0.000001 1.434280 9.411164 -103.195259 3.104554 5.168363 -61.962991 4.254826 5.629840 -74.142270 -0.000001 -0.000000 0.000001 7.241572 17.883163 -107.347775 4.610411 5.718448 -77.737265 4.610309 5.718426 -77.736507 0.000000 0.000001 0.000000 -1.038196 -17.288298 -6.001690 -5.492417 -31.806453 60.743379 -0.000011 134.828686 0.000015 54.259050 18.180212 -23.268382 2.577994 -1.459119 -11.011947 2.320215 -4.257104 -0.974109 -0.137300 -17.679468 -20.396910 -0.000001 -0.000000 0.000000 1.843539 -4.239446 67.731352 1.364951 -3.295805 44.983906 1.675957 -3.579541 50.167015 -0.000000 0.000002 -0.000000 1.479818 -6.189640 73.737916 1.883412 -3.742505 53.415146 2.716640 -4.234435 65.351189 0.000000 -0.000000 0.000001 3.364764 -6.830607 84.861262 1.837149 -3.707831 52.703164 2.210183 -3.963719 58.274751 -0.000001 0.000001 -0.000003 0.872772 -22.224621 93.202473 2.567972 -4.163194 63.320956 2.520861 -4.139235 62.669936 -0.000001 -0.000000 0.000003 -53.594503 0.666176 3.114410 50.883284 6.153259 1.402329 1.932535 2.421305 5.042324 -13.677263 0.169674 -4.460214 0.000000 -0.000001 -0.000000 -46.577700 7.098272 -14.773293 53.069156 -6.530127 -2.578126 -3.481605 -7.461737 15.247491 -30.609906 0.000004 -0.000005 0.000000 0.000000 -0.000000 
